# xmcd CD database file
#
# Track frame offsets:
#	150
#	9725
#	28795
#
# Disc length: 665 seconds
#
# Revision: 2
# Processed by: cddbd v1.5PL3 Copyright (c) Steve Scherf et al.
# Submitted via: CDex 1.51
#
DISCID=1c029703
DTITLE=美羽 - Piaキャロットへようこそ!!３DC版スペシャルディスク
DYEAR=2003
DGENRE=Soundtrack
TTITLE0=永遠のストーリー(ショートVer.)
TTITLE1=恋人たちの伝説(ショート Ver.)
TTITLE2=ハッピーエンドからはじめよう
EXTD=YEAR: 2003
EXTT0=
EXTT1=
EXTT2=
PLAYORDER=
